<svg width="613" height="167" viewBox="0 0 613 167" fill="none" xmlns="http://www.w3.org/2000/svg">
<g clip-path="url(#clip0_162_605)">
<path d="M613 0H0V166.67H613V0Z" fill="white"/>
<path d="M68.3415 89.6L65.7472 89.61L56.9629 66.6L59.9578 66.58L67.1595 85.14L74.211 66.5L77.286 66.49L68.3415 89.6Z" fill="#5D5D5F"/>
<path d="M82.1342 63.76H79.2695V59H82.1342V63.76ZM79.3096 66.48H82.1442L82.2744 89.54H79.4298L79.3096 66.48Z" fill="#5D5D5F"/>
<path d="M108.537 78.7901L88.5047 78.9001C88.5851 81.1933 89.5295 83.3718 91.149 85.0001C91.9247 85.7587 92.8468 86.352 93.8592 86.7439C94.8717 87.1359 95.9534 87.3183 97.0386 87.2801C98.6394 87.292 100.206 86.8138 101.526 85.9101C102.883 84.9708 103.945 83.6672 104.591 82.1501H107.816C106.973 84.4785 105.491 86.5231 103.539 88.0501C101.693 89.4083 99.4518 90.1248 97.1588 90.0901C95.6157 90.1216 94.0838 89.8218 92.6668 89.2111C91.2498 88.6003 89.9807 87.6929 88.9454 86.5501C86.7916 84.1872 85.5848 81.1153 85.5552 77.9206C85.5257 74.7259 86.6755 71.6323 88.7851 69.2301C89.8555 68.0925 91.1552 67.1942 92.5985 66.5944C94.0418 65.9946 95.596 65.7068 97.1588 65.7501C98.6984 65.6938 100.231 65.9816 101.645 66.5923C103.059 67.203 104.319 68.1213 105.332 69.2801C107.529 71.8699 108.673 75.1887 108.537 78.5801V78.7901ZM105.382 76.2301C105.024 74.0355 103.971 72.0133 102.377 70.4601C100.815 69.1202 98.7951 68.4327 96.7381 68.5401C94.7159 68.5024 92.7609 69.2645 91.2992 70.6601C89.7594 72.1718 88.7989 74.1746 88.5848 76.3201L105.382 76.2301Z" fill="#5D5D5F"/>
<path d="M113.796 89.3501L113.696 69.2701L109.469 69.2901L109.459 66.3201L113.676 66.2901L113.636 58.8301L116.48 58.8101L116.521 66.2801L120.727 66.2601L120.747 69.2301L116.531 69.2501L116.641 89.3401L113.796 89.3501Z" fill="#5D5D5F"/>
<path d="M127.327 86.61V89.1301H120.807L120.646 58.8101H127.508V68.8101C128.272 67.8573 129.244 67.0915 130.35 66.5716C131.455 66.0516 132.666 65.7911 133.888 65.8101C135.307 65.8036 136.71 66.1003 138.005 66.6801C139.369 67.2796 140.615 68.1197 141.681 69.1601C142.795 70.2326 143.687 71.5136 144.305 72.9301C144.991 74.3689 145.334 75.9468 145.307 77.5401C145.333 79.138 145.029 80.7241 144.415 82.2001C143.843 83.6189 142.999 84.913 141.931 86.0101C140.936 87.0434 139.753 87.8782 138.446 88.4701C136.602 89.2666 134.568 89.5167 132.586 89.1904C130.603 88.8642 128.757 87.9754 127.267 86.6301M127.217 77.6901C127.189 78.4398 127.326 79.1866 127.619 79.8777C127.911 80.5688 128.352 81.1875 128.91 81.6901C130.009 82.6707 131.444 83.1901 132.917 83.1401C133.901 83.1385 134.87 82.8983 135.741 82.4401C136.601 81.9984 137.325 81.3312 137.835 80.5101C138.339 79.5902 138.603 78.5586 138.603 77.5101C138.603 76.4616 138.339 75.4299 137.835 74.5101C137.318 73.6976 136.587 73.0435 135.721 72.6201C134.837 72.1632 133.852 71.933 132.856 71.9501C131.916 71.9492 130.989 72.172 130.152 72.6001C129.296 73.0316 128.578 73.6931 128.079 74.5101C127.528 75.4694 127.26 76.5651 127.307 77.6701" fill="#0C6B38"/>
<path d="M160.852 82.4H168.285C165.954 87.2133 162.245 89.63 157.156 89.65C155.009 89.6847 152.894 89.1239 151.046 88.03C149.227 86.9658 147.719 85.4456 146.669 83.62C145.6 81.8005 145.037 79.7293 145.037 77.62V76.33C145.025 75.3619 145.202 74.4008 145.557 73.5C146.062 72.355 146.69 71.2685 147.431 70.26C148.499 68.8336 149.898 67.6874 151.507 66.92C153.262 65.9844 155.217 65.4869 157.206 65.47C158.478 65.4883 159.741 65.6766 160.963 66.03C162.451 66.4644 163.821 67.2303 164.969 68.27C166.175 69.2754 167.152 70.5267 167.834 71.94C168.429 73.1587 168.838 74.4599 169.046 75.8C169.269 77.1718 169.376 78.5601 169.366 79.95L151.918 80.04C152.177 80.988 152.694 81.8462 153.41 82.52C154.151 83.1524 155.066 83.5463 156.035 83.65L157.277 83.78C158.566 83.7038 159.803 83.248 160.832 82.47M151.818 75.3L162.515 75.24C162.146 74.0453 161.342 73.032 160.261 72.4C159.261 71.7974 158.115 71.4793 156.946 71.48C156.197 71.4895 155.457 71.6387 154.762 71.92C154.041 72.1692 153.396 72.5997 152.889 73.17C152.374 73.7612 152.01 74.4679 151.828 75.23" fill="#0C6B38"/>
<path d="M193.616 65.8899L193.746 88.7799H187.185V86.2499C185.304 88.059 182.786 89.0574 180.174 89.0299C178.738 89.0474 177.313 88.7718 175.987 88.2199C174.662 87.6564 173.463 86.8335 172.461 85.7999C171.404 84.6983 170.562 83.4097 169.977 81.9999C169.351 80.533 169.027 78.9548 169.026 77.3599C169.014 75.7842 169.334 74.2236 169.967 72.7799C170.571 71.3663 171.434 70.0775 172.511 68.9799C173.572 67.9102 174.822 67.0456 176.197 66.4299C177.505 65.8295 178.925 65.5126 180.364 65.4999C181.544 65.4924 182.712 65.7237 183.8 66.1799C184.983 66.6856 186.03 67.4634 186.855 68.4499V65.8899H193.616ZM175.797 77.3599C175.769 78.4175 176.051 79.4602 176.608 80.3599C177.123 81.1845 177.868 81.8413 178.752 82.2499C179.62 82.6617 180.57 82.8753 181.531 82.8753C182.493 82.8753 183.442 82.6617 184.311 82.2499C185.164 81.8313 185.877 81.1748 186.364 80.3599C186.894 79.4512 187.155 78.4108 187.115 77.3599C187.147 76.2762 186.873 75.2052 186.324 74.2699C185.82 73.4468 185.095 72.7816 184.231 72.3499C183.367 71.9195 182.416 71.6954 181.451 71.6954C180.486 71.6954 179.535 71.9195 178.671 72.3499C177.799 72.8068 177.074 73.5 176.578 74.3499C176.041 75.257 175.77 76.2966 175.797 77.3499" fill="#0C6B38"/>
<path d="M210.113 78.2501L210.053 65.8101H216.663L216.783 88.8101H210.513V85.7301C209.791 86.8342 208.798 87.736 207.629 88.3501C206.474 88.9567 205.188 89.2725 203.882 89.2701H203.241C202.729 89.2698 202.219 89.1923 201.729 89.0401C201.064 88.817 200.412 88.5566 199.776 88.2601C199.096 87.9715 198.487 87.5381 197.993 86.9901C197.676 86.6265 197.388 86.2386 197.131 85.83C196.961 85.55 196.781 85.2401 196.611 84.8901C196.401 84.3071 196.236 83.7086 196.12 83.1001L195.98 81.0001L195.899 65.9101H202.68L202.741 78.3501C202.741 78.6701 202.741 78.9801 202.741 79.2901C202.78 79.7891 202.86 80.2841 202.981 80.7701C203.115 81.4103 203.469 81.9834 203.983 82.3901C204.626 82.8366 205.404 83.0484 206.186 82.9901C206.756 83.0366 207.328 82.9423 207.852 82.7155C208.376 82.4888 208.836 82.1366 209.191 81.6901C209.87 80.6981 210.201 79.5096 210.133 78.3101" fill="#0C6B38"/>
<path d="M226.94 88.68L220.079 88.72L219.989 70.75L215.551 70.78L215.531 65.78L219.958 65.75L219.918 58.31L226.78 58.27L226.82 65.72L231.237 65.69L232.229 70.69L226.85 70.72L226.94 88.68Z" fill="#0C6B38"/>
<path d="M245.841 65.61L253.133 65.58L236.897 103.99L230.116 104.03L237.678 87.18L229.164 65.7L236.626 65.66L241.073 78.98L245.841 65.61Z" fill="#0C6B38"/>
<path d="M73.2798 100.44H72.8191L70.6455 93.62H71.2265L73.0494 99.4L74.8323 93.6H75.3832L73.2798 100.44Z" fill="#5D5D5F"/>
<path d="M75.6533 93.6H76.2033V94.68H75.6533V93.6ZM76.2333 100.42H75.6933V95.27H76.2333V100.42Z" fill="#5D5D5F"/>
<path d="M81.2727 98H77.3864C77.3864 98.25 77.4465 98.37 77.4465 98.39C77.4557 98.4821 77.4759 98.5727 77.5066 98.66C77.5596 98.8384 77.6407 99.0072 77.747 99.16C77.8619 99.3266 78.0082 99.4692 78.1777 99.58C78.3057 99.6939 78.4609 99.7732 78.6284 99.81C78.7633 99.8403 78.9009 99.857 79.0391 99.86C79.3284 99.8592 79.6109 99.7722 79.8504 99.61C80.1481 99.3774 80.3739 99.0654 80.5015 98.71H81.1325C81.013 99.0457 80.8515 99.3649 80.6517 99.66C80.4691 99.9117 80.2331 100.12 79.9606 100.27C79.6896 100.415 79.3867 100.491 79.0791 100.49C78.6717 100.492 78.2734 100.37 77.9373 100.14C77.581 99.8811 77.2952 99.5373 77.1059 99.14C76.9065 98.714 76.8007 98.2503 76.7954 97.78C76.787 97.2966 76.8898 96.8176 77.0959 96.38C77.272 95.9774 77.5563 95.6313 77.9172 95.38C78.2579 95.1597 78.6533 95.0385 79.0591 95.03H79.2294L79.63 95.09C79.8969 95.1671 80.1409 95.3078 80.3412 95.5C80.6113 95.7379 80.8265 96.0312 80.9722 96.36C81.0723 96.5807 81.1463 96.8122 81.1926 97.05C81.2468 97.3469 81.2736 97.6482 81.2727 97.95M77.3964 97.41H80.6617C80.587 96.9693 80.4047 96.5537 80.1308 96.2C79.9939 96.0486 79.8248 95.9296 79.6359 95.8517C79.447 95.7739 79.2431 95.7391 79.0391 95.75C78.7593 95.7435 78.4839 95.82 78.2478 95.97C78.0229 96.1263 77.8405 96.3359 77.7169 96.58C77.582 96.869 77.4876 97.1753 77.4364 97.49" fill="#5D5D5F"/>
<path d="M82.7446 95.8901L82.7746 100.39H82.2137L82.1836 95.8901H81.3623V95.2401H82.1836L82.1736 93.5601H82.7345L82.7446 95.2301H83.5559V95.8801L82.7446 95.8901Z" fill="#5D5D5F"/>
<path d="M87.5226 97.4V100.4H86.9717V97.51C86.9798 97.2183 86.9563 96.9266 86.9016 96.64C86.8541 96.4121 86.7348 96.2053 86.5611 96.05C86.4631 95.9554 86.3468 95.8819 86.2194 95.8337C86.0919 95.7856 85.956 95.7639 85.8198 95.77H85.5895C85.4792 95.7731 85.3705 95.7968 85.2689 95.84C85.139 95.9003 85.0178 95.9777 84.9084 96.07C84.7525 96.2117 84.6353 96.3906 84.5678 96.59C84.4686 96.9375 84.428 97.2992 84.4476 97.66V100.42H83.9268V95.27H84.4576V95.84C84.6152 95.6263 84.8202 95.4519 85.0565 95.3305C85.2928 95.2091 85.5541 95.1439 85.8198 95.14C86.0907 95.1483 86.3568 95.213 86.6011 95.33C86.9402 95.5579 87.2076 95.8771 87.3725 96.2505C87.5373 96.6239 87.5929 97.0364 87.5326 97.44" fill="#5D5D5F"/>
<path d="M92.521 100.33H91.9901V99.51C91.8392 99.8085 91.6089 100.06 91.3244 100.236C91.04 100.412 90.7123 100.507 90.3775 100.51C90.1299 100.514 89.8843 100.466 89.6563 100.37C89.4858 100.308 89.3242 100.224 89.1755 100.12C89.0553 100.03 88.9251 99.9 88.7448 99.74C88.5542 99.5125 88.4081 99.2513 88.3141 98.97C88.1704 98.6072 88.099 98.22 88.1037 97.83C88.1025 97.4476 88.1704 97.0682 88.3041 96.71C88.4199 96.3801 88.5966 96.0749 88.8249 95.81C89.023 95.588 89.2607 95.4049 89.5261 95.27C89.7901 95.1498 90.0772 95.0884 90.3674 95.09C90.5722 95.0865 90.7759 95.1204 90.9684 95.19C91.1673 95.2635 91.3533 95.3682 91.5193 95.5C91.6975 95.6509 91.8497 95.8299 91.97 96.03V95.2H92.5009L92.521 100.33ZM91.9801 97.74C91.9787 97.3937 91.9 97.0521 91.7497 96.74C91.612 96.4486 91.4058 96.1947 91.1487 96C90.9181 95.8255 90.6368 95.7307 90.3474 95.73H90.1471C89.931 95.7568 89.7248 95.8358 89.5461 95.96C89.3597 96.0875 89.197 96.2466 89.0653 96.43C88.9278 96.636 88.8231 96.862 88.7548 97.1C88.6898 97.3447 88.6562 97.5968 88.6546 97.85V98C88.6534 98.1593 88.677 98.3179 88.7248 98.47C88.7811 98.6612 88.8584 98.8456 88.9551 99.02C89.0914 99.2559 89.2798 99.4577 89.506 99.61C89.7452 99.7727 90.0279 99.8598 90.3174 99.86C90.6176 99.8575 90.9077 99.7515 91.1387 99.56C91.3986 99.35 91.6018 99.0784 91.7297 98.77C91.8737 98.4565 91.9455 98.1148 91.94 97.77" fill="#5D5D5F"/>
<path d="M93.8629 100.33H93.332V95.18H93.8629V95.76C94.02 95.5528 94.2228 95.3846 94.4556 95.2684C94.6884 95.1522 94.9448 95.0911 95.2051 95.09H95.3353H95.5957L95.9162 95.19C96.0768 95.2543 96.2231 95.3494 96.347 95.47C96.5053 95.5999 96.6321 95.764 96.7176 95.95C96.8796 95.67 97.1106 95.4359 97.3887 95.27C97.6532 95.1059 97.9586 95.0192 98.2701 95.02C98.5659 95.0084 98.8575 95.0926 99.1014 95.26C99.369 95.4523 99.5772 95.7155 99.7024 96.02C99.8634 96.4345 99.9449 96.8755 99.9428 97.32V100.32H99.4119V97.42C99.4119 96.28 99.0013 95.71 98.2 95.72C97.9782 95.7194 97.7603 95.7781 97.5689 95.89C97.3846 95.995 97.235 96.1514 97.1382 96.34C97.0604 96.5048 97.0064 96.6799 96.978 96.86C96.9603 97.0663 96.9603 97.2737 96.978 97.48V100.33H96.4471V97.46C96.4754 97.0155 96.3783 96.572 96.1667 96.18C96.0618 96.0157 95.9111 95.8856 95.7331 95.8057C95.5552 95.7257 95.3577 95.6995 95.165 95.73C94.9394 95.734 94.7186 95.796 94.524 95.91C94.3308 96.0113 94.1761 96.1728 94.0833 96.37C93.99 96.54 93.9321 96.7271 93.913 96.92C93.913 97.08 93.913 97.2 93.913 97.28V97.85L93.8629 100.33Z" fill="#5D5D5F"/>
<path d="M100.954 93.46H101.495L100.894 95.47H100.354L100.954 93.46Z" fill="#5D5D5F"/>
<path d="M101.906 98.6499H102.487C102.48 98.8759 102.521 99.1007 102.607 99.31C102.683 99.4712 102.8 99.6093 102.947 99.7099C103.058 99.761 103.177 99.7914 103.298 99.7999C103.439 99.7985 103.575 99.7531 103.689 99.67C103.806 99.5942 103.9 99.4867 103.959 99.3599C104.019 99.2281 104.05 99.0848 104.049 98.94C104.044 98.7414 103.985 98.5481 103.879 98.38C103.773 98.2125 103.62 98.0802 103.438 98L102.887 97.75C102.719 97.6797 102.566 97.5779 102.437 97.45C102.313 97.323 102.22 97.1689 102.166 97C102.118 96.834 102.091 96.6626 102.086 96.4899C102.075 96.3969 102.075 96.303 102.086 96.2099C102.11 96.0941 102.144 95.9804 102.186 95.8699C102.269 95.6676 102.392 95.484 102.547 95.3299C102.645 95.2212 102.766 95.1353 102.901 95.0783C103.036 95.0213 103.182 94.9945 103.328 95C103.525 95.0077 103.718 95.0626 103.889 95.16C103.997 95.2016 104.095 95.2647 104.178 95.3455C104.261 95.4263 104.326 95.5231 104.37 95.63C104.479 95.8865 104.541 96.1612 104.55 96.44H103.949C103.949 96.04 103.769 95.79 103.528 95.7H103.298C103.211 95.6994 103.124 95.7179 103.044 95.7541C102.965 95.7904 102.894 95.8436 102.837 95.91C102.705 96.0731 102.641 96.2807 102.657 96.4899C102.641 96.5926 102.641 96.6972 102.657 96.7999C102.706 96.91 102.778 97.0087 102.867 97.0899C102.978 97.1758 103.099 97.2465 103.228 97.2999L103.619 97.45L103.789 97.5199L104.039 97.66C104.207 97.7785 104.339 97.9412 104.42 98.13C104.54 98.3686 104.602 98.6326 104.6 98.8999C104.601 99.1617 104.547 99.4208 104.44 99.66C104.338 99.8946 104.171 100.096 103.959 100.24C103.747 100.386 103.496 100.466 103.238 100.47C103.004 100.48 102.773 100.417 102.577 100.29C102.42 100.199 102.286 100.072 102.186 99.92L102.016 99.6199C102.016 99.5399 102.016 99.43 101.926 99.31C101.836 99.19 101.926 99.07 101.926 98.97C101.915 98.8803 101.915 98.7897 101.926 98.7" fill="#5D5D5F"/>
<path d="M107.886 97.39V100.25H107.325V93.4299H108.637C108.916 93.4321 109.194 93.4555 109.469 93.4999C109.703 93.5682 109.915 93.6997 110.08 93.8799C110.27 94.0636 110.414 94.2898 110.5 94.5399C110.609 94.8073 110.67 95.0916 110.681 95.3799V95.4899C110.668 95.8479 110.553 96.1948 110.35 96.4899C110.177 96.7885 109.919 97.0288 109.609 97.1799C109.29 97.3051 108.95 97.3663 108.607 97.3599H107.946L107.886 97.39ZM107.886 94.0899V96.7199H108.687H109.128L109.298 96.67C109.356 96.6535 109.411 96.6264 109.459 96.5899C109.518 96.5547 109.572 96.5109 109.619 96.4599C109.693 96.412 109.755 96.3468 109.799 96.2699C109.87 96.1716 109.918 96.0589 109.939 95.9399C109.979 95.8404 110.006 95.7362 110.02 95.6299C110.026 95.5467 110.026 95.4632 110.02 95.3799C110.023 95.136 109.964 94.8953 109.849 94.6799C109.755 94.4865 109.6 94.3287 109.409 94.2299C109.084 94.1336 108.745 94.0964 108.407 94.1199H107.856L107.886 94.0899Z" fill="#5D5D5F"/>
<path d="M111.813 97.12V100.23H111.262V95.08H111.773V95.67C111.894 95.4738 112.05 95.3011 112.233 95.16C112.395 95.0471 112.587 94.9845 112.784 94.98V95.7C112.646 95.7056 112.511 95.7395 112.387 95.7998C112.263 95.86 112.153 95.9452 112.063 96.05C111.954 96.1852 111.885 96.3478 111.863 96.52C111.841 96.7194 111.841 96.9206 111.863 97.12" fill="#5D5D5F"/>
<path d="M117.412 97.84H113.536C113.536 98.08 113.536 98.21 113.586 98.22C113.636 98.23 113.586 98.34 113.656 98.5C113.709 98.6752 113.79 98.8406 113.896 98.99C114.007 99.1592 114.15 99.3053 114.317 99.42C114.448 99.5355 114.607 99.6147 114.778 99.65C114.913 99.6797 115.05 99.6964 115.188 99.7C115.476 99.6882 115.755 99.602 116 99.45C116.297 99.2174 116.523 98.9053 116.651 98.55H117.272C117.163 98.8869 117 99.2043 116.791 99.49C116.613 99.7444 116.38 99.9561 116.11 100.11C115.838 100.253 115.536 100.328 115.228 100.33C114.82 100.329 114.421 100.203 114.087 99.97C113.722 99.7201 113.434 99.3739 113.255 98.97C113.054 98.5378 112.949 98.0668 112.949 97.59C112.949 97.1132 113.054 96.6422 113.255 96.21C113.431 95.8074 113.716 95.4613 114.077 95.21C114.41 94.982 114.804 94.86 115.208 94.86H115.399L115.789 94.92C116.06 94.9948 116.308 95.1357 116.51 95.33C116.774 95.5696 116.982 95.8629 117.121 96.19C117.225 96.4102 117.302 96.6418 117.352 96.88C117.403 97.1772 117.427 97.4785 117.422 97.78M113.556 97.23H116.821C116.742 96.7652 116.545 96.3281 116.25 95.96C116.112 95.8102 115.943 95.6923 115.754 95.6146C115.565 95.5369 115.362 95.5012 115.158 95.51C114.876 95.505 114.597 95.5814 114.357 95.73C114.13 95.884 113.947 96.0942 113.826 96.34C113.691 96.6248 113.6 96.9282 113.556 97.24" fill="#5D5D5F"/>
<path d="M118.504 100.19H117.973V95.03H118.514V95.61C118.67 95.4016 118.872 95.2326 119.105 95.1163C119.338 95 119.595 94.9396 119.856 94.94H119.986H120.246L120.557 95.04C120.723 95.0999 120.873 95.1955 120.998 95.32C121.15 95.4553 121.276 95.6181 121.368 95.8C121.531 95.5173 121.766 95.2827 122.049 95.12C122.306 94.9549 122.605 94.868 122.911 94.87C123.207 94.8569 123.499 94.9412 123.742 95.11C124.016 95.2983 124.228 95.5625 124.353 95.87C124.514 96.2845 124.596 96.7255 124.593 97.17V100.17H124.053V97.27C124.053 96.13 123.642 95.56 122.831 95.56C122.612 95.5677 122.398 95.6296 122.21 95.74C122.025 95.8478 121.873 96.0032 121.769 96.19C121.691 96.3548 121.637 96.5299 121.609 96.71C121.597 96.9165 121.597 97.1235 121.609 97.33V100.18H121.088V97.3C121.11 96.8592 121.013 96.4207 120.807 96.03C120.702 95.8657 120.552 95.7356 120.374 95.6557C120.196 95.5757 119.998 95.5494 119.806 95.58C119.58 95.5806 119.358 95.6429 119.165 95.76C118.978 95.8662 118.827 96.0266 118.734 96.22C118.645 96.3919 118.587 96.578 118.564 96.77C118.564 96.93 118.564 97.05 118.564 97.13V100.19H118.504Z" fill="#5D5D5F"/>
<path d="M125.354 93.33H125.894V94.4H125.354V93.33ZM125.934 100.16H125.394V95H125.944L125.934 100.16Z" fill="#5D5D5F"/>
<path d="M130.963 97.77H127.077C127.077 98.01 127.137 98.14 127.137 98.15C127.152 98.2452 127.176 98.3389 127.207 98.43C127.252 98.6064 127.331 98.7727 127.438 98.92C127.558 99.0844 127.704 99.2294 127.868 99.35C127.999 99.4655 128.158 99.5447 128.329 99.58C128.463 99.5884 128.596 99.5884 128.73 99.58C129.024 99.5781 129.312 99.4951 129.561 99.34C129.852 99.1047 130.07 98.7929 130.192 98.44H130.823C130.712 98.776 130.55 99.0931 130.342 99.38C130.164 99.6344 129.931 99.8461 129.661 100C129.39 100.144 129.087 100.22 128.78 100.22C128.371 100.219 127.973 100.093 127.638 99.86C127.28 99.6033 126.993 99.2589 126.807 98.86C126.605 98.4295 126.501 97.9601 126.501 97.485C126.501 97.0099 126.605 96.5405 126.807 96.11C126.983 95.7074 127.267 95.3612 127.628 95.11C127.961 94.882 128.356 94.7601 128.76 94.76H128.94L129.341 94.82C129.607 94.8927 129.852 95.0301 130.052 95.22C130.321 95.4602 130.533 95.7574 130.673 96.09C130.779 96.3048 130.853 96.5339 130.893 96.77C130.953 97.0695 130.98 97.3747 130.973 97.68M127.117 97.13H130.362C130.288 96.6639 130.091 96.2257 129.792 95.86C129.66 95.7066 129.495 95.5854 129.309 95.5056C129.123 95.4259 128.922 95.3897 128.72 95.4C128.439 95.3893 128.161 95.4638 127.923 95.6138C127.685 95.7637 127.499 95.982 127.388 96.24C127.243 96.5208 127.151 96.8259 127.117 97.14" fill="#5D5D5F"/>
<path d="M132.056 97V100.11H131.515V94.96H132.036V95.55C132.154 95.3516 132.311 95.1783 132.496 95.04C132.654 94.9256 132.843 94.8627 133.037 94.86V95.58C132.899 95.5868 132.763 95.6224 132.639 95.6844C132.515 95.7463 132.405 95.8334 132.316 95.94C132.218 96.0768 132.153 96.2342 132.126 96.4C132.103 96.5994 132.103 96.8006 132.126 97" fill="#5D5D5F"/>
<path d="M136.105 93.2857L135.535 93.2896L135.582 100.119L136.152 100.116L136.105 93.2857Z" fill="#5D5D5F"/>
<path d="M140.63 97.12V100.12H140.099V97.23C140.107 96.935 140.083 96.64 140.029 96.35C139.979 96.1259 139.86 95.9231 139.688 95.77C139.59 95.6754 139.474 95.6018 139.347 95.5537C139.219 95.5056 139.083 95.4839 138.947 95.49H138.707C138.6 95.4913 138.495 95.5117 138.396 95.55C138.27 95.6177 138.15 95.6946 138.036 95.78C137.882 95.9274 137.765 96.109 137.695 96.31C137.597 96.6543 137.556 97.0124 137.575 97.37V100.13H137.044V94.97H137.565V95.54C137.721 95.3253 137.926 95.1507 138.162 95.0307C138.399 94.9107 138.661 94.8488 138.927 94.85C139.197 94.8545 139.463 94.9159 139.708 95.03C140.329 95.36 140.63 96.03 140.64 97.15" fill="#5D5D5F"/>
<path d="M142.363 95.57L142.393 100.07H141.822L141.802 95.57H140.98V94.92H141.802L141.792 93.24H142.353L142.363 94.91H143.174L143.184 95.56L142.363 95.57Z" fill="#5D5D5F"/>
<path d="M147.781 97.6799H143.885C143.885 97.9199 143.945 98.0499 143.945 98.0599C143.945 98.0699 143.945 98.1799 144.015 98.3299C144.062 98.5107 144.144 98.6805 144.256 98.8299C144.372 98.9945 144.514 99.1397 144.676 99.2599C144.81 99.3719 144.967 99.4507 145.137 99.4899C145.274 99.504 145.411 99.504 145.548 99.4899C145.835 99.4881 146.117 99.4049 146.359 99.2499C146.661 99.0209 146.887 98.7077 147.01 98.3499H147.641C147.526 98.6842 147.364 99.0007 147.16 99.2899C146.98 99.5469 146.739 99.7563 146.459 99.8999C146.195 100.054 145.894 100.133 145.588 100.13C145.179 100.129 144.781 100.003 144.446 99.7699C144.09 99.511 143.804 99.1672 143.615 98.7699C143.414 98.3442 143.308 97.8803 143.304 97.4099C143.297 96.9298 143.4 96.4543 143.605 96.0199C143.781 95.6173 144.065 95.2712 144.426 95.0199C144.762 94.79 145.16 94.668 145.568 94.6699H145.738L146.139 94.7299C146.407 94.803 146.652 94.9443 146.85 95.1399C147.119 95.3786 147.334 95.6718 147.481 95.9999C147.578 96.2182 147.652 96.4462 147.701 96.6799C147.756 96.9802 147.783 97.2848 147.781 97.5899M143.905 97.0399H147.16C147.089 96.5746 146.895 96.1365 146.599 95.7699C146.464 95.6161 146.295 95.4948 146.106 95.4152C145.917 95.3355 145.713 95.2996 145.508 95.3099C145.229 95.3053 144.955 95.3824 144.72 95.5317C144.485 95.6811 144.299 95.896 144.185 96.1499C144.05 96.4354 143.956 96.7383 143.905 97.0499" fill="#5D5D5F"/>
<path d="M148.863 96.92V100.03H148.322V94.87H148.833V95.46C148.942 95.2838 149.081 95.1282 149.244 95C149.407 94.8906 149.598 94.8315 149.795 94.83V95.54C149.656 95.5468 149.52 95.5823 149.396 95.6443C149.272 95.7063 149.162 95.7933 149.073 95.9C148.974 96.0372 148.906 96.1941 148.873 96.36C148.856 96.5596 148.856 96.7603 148.873 96.96" fill="#5D5D5F"/>
<path d="M153.851 97V100H153.3V97.11C153.314 96.8182 153.29 96.5259 153.23 96.24C153.178 96.016 153.064 95.8113 152.899 95.65C152.8 95.5542 152.682 95.4799 152.553 95.4317C152.424 95.3835 152.286 95.3625 152.148 95.37H151.918C151.812 95.3746 151.707 95.3948 151.607 95.43C151.477 95.4951 151.353 95.5721 151.237 95.66C151.088 95.8079 150.972 95.985 150.896 96.18C150.803 96.5287 150.762 96.8894 150.776 97.25V97.48V100.01H150.245V94.86H150.776V95.43C150.934 95.2151 151.141 95.0406 151.379 94.9206C151.618 94.8007 151.881 94.7388 152.148 94.74C152.418 94.7468 152.684 94.8081 152.929 94.92C153.267 95.1496 153.533 95.469 153.698 95.842C153.862 96.215 153.919 96.6265 153.861 97.03" fill="#5D5D5F"/>
<path d="M158.849 100H158.258V99.18C158.097 99.4769 157.862 99.728 157.577 99.91C157.291 100.064 156.971 100.147 156.646 100.15C156.399 100.158 156.153 100.114 155.924 100.02C155.756 99.9487 155.595 99.8617 155.444 99.76C155.294 99.6482 155.156 99.5208 155.033 99.38C154.829 99.1584 154.676 98.8958 154.582 98.61C154.446 98.2455 154.378 97.8591 154.382 97.47C154.372 97.0902 154.44 96.7124 154.582 96.36C154.691 96.0291 154.865 95.7231 155.093 95.46C155.295 95.2378 155.536 95.0547 155.804 94.92C156.255 94.7029 156.772 94.6706 157.247 94.83C157.441 94.9117 157.622 95.0194 157.787 95.15C157.968 95.2949 158.12 95.471 158.238 95.67V94.85H158.769L158.849 100ZM158.308 97.41C158.3 97.0635 158.218 96.7227 158.068 96.41C157.931 96.1066 157.721 95.842 157.457 95.64C157.226 95.4671 156.944 95.3756 156.656 95.38H156.505C156.285 95.4023 156.074 95.4816 155.894 95.61C155.701 95.7292 155.537 95.8897 155.414 96.08C155.273 96.2829 155.171 96.5101 155.113 96.75C155.043 96.9905 155.01 97.2398 155.013 97.49V97.67C155.012 97.8261 155.035 97.9814 155.083 98.13C155.139 98.3212 155.217 98.5057 155.313 98.68C155.45 98.9158 155.638 99.1175 155.864 99.27C156.103 99.4345 156.386 99.5217 156.676 99.52C156.976 99.5192 157.267 99.413 157.497 99.22C157.763 99.0135 157.97 98.7411 158.098 98.43C158.23 98.1126 158.301 97.7735 158.308 97.43" fill="#5D5D5F"/>
<path d="M160.572 95.47L160.592 99.97H160.021L160.001 95.47L159.18 95.48V94.82H160.001L159.991 93.15L160.552 93.14L160.562 94.82L161.373 94.81V95.46L160.572 95.47Z" fill="#5D5D5F"/>
<path d="M161.744 93.14H162.264V94.22H161.724L161.744 93.14ZM162.324 99.96H161.784V94.81H162.264L162.324 99.96Z" fill="#5D5D5F"/>
<path d="M162.896 97.38C162.886 97.0396 162.94 96.7004 163.056 96.38C163.169 96.063 163.331 95.7659 163.537 95.5C163.734 95.2402 163.988 95.0282 164.278 94.88C164.535 94.745 164.82 94.673 165.11 94.67H165.27C165.613 94.693 165.941 94.8184 166.212 95.03C166.406 95.1886 166.584 95.3661 166.742 95.56C166.891 95.7775 167.018 96.0086 167.123 96.25C167.263 96.5993 167.328 96.9741 167.313 97.35C167.326 97.7413 167.265 98.1314 167.133 98.5C167.003 98.8432 166.809 99.1587 166.562 99.43C166.386 99.6423 166.168 99.816 165.921 99.94C165.668 100.062 165.391 100.126 165.11 100.13H165.01C164.758 100.138 164.51 100.079 164.288 99.96C164.125 99.8636 163.971 99.7532 163.828 99.63C163.706 99.5309 163.601 99.4127 163.517 99.28C163.312 99.015 163.153 98.7175 163.046 98.4C162.931 98.0793 162.873 97.7408 162.876 97.4M163.457 97.4C163.456 97.6049 163.476 97.8094 163.517 98.01C163.577 98.2336 163.658 98.4512 163.758 98.66C163.892 98.9051 164.089 99.1107 164.328 99.2563C164.567 99.402 164.84 99.4825 165.12 99.49C165.401 99.4894 165.677 99.406 165.911 99.25C166.176 99.0726 166.385 98.8227 166.512 98.53C166.679 98.1702 166.758 97.7762 166.742 97.38C166.745 97.0777 166.697 96.7771 166.602 96.49C166.522 96.2485 166.396 96.0245 166.232 95.83C166.082 95.6612 165.902 95.5221 165.701 95.42C165.594 95.3776 165.483 95.3474 165.37 95.33C165.274 95.3202 165.176 95.3202 165.08 95.33C164.875 95.3289 164.674 95.3733 164.489 95.46C164.292 95.5654 164.113 95.7003 163.958 95.86C163.788 96.0596 163.658 96.2907 163.577 96.54C163.489 96.8282 163.449 97.1288 163.457 97.43" fill="#5D5D5F"/>
<path d="M171.499 97V100H170.959V97.11C170.961 96.8185 170.938 96.5273 170.888 96.24C170.83 96.0162 170.713 95.8124 170.548 95.65C170.45 95.5528 170.332 95.4782 170.202 95.4316C170.073 95.3849 169.934 95.3673 169.797 95.38H169.566C169.46 95.3805 169.355 95.4008 169.256 95.44C169.126 95.5003 169.005 95.5777 168.895 95.67C168.739 95.8117 168.622 95.9906 168.555 96.19C168.452 96.5369 168.408 96.8986 168.424 97.26V97.49V100.02H167.894V94.87H168.424V95.45C168.581 95.2358 168.786 95.061 169.023 94.9395C169.259 94.818 169.521 94.7531 169.787 94.75C170.057 94.7583 170.324 94.823 170.568 94.94C170.906 95.1688 171.173 95.4881 171.338 95.8613C171.502 96.2345 171.558 96.6464 171.499 97.05" fill="#5D5D5F"/>
<path d="M176.498 99.89H175.957V99.07C175.795 99.3666 175.556 99.615 175.266 99.79C174.981 99.9478 174.661 100.034 174.335 100.04C174.087 100.042 173.842 99.9942 173.614 99.9C173.447 99.8358 173.289 99.7519 173.143 99.65C172.992 99.5357 172.851 99.4086 172.722 99.27C172.524 99.0441 172.371 98.7828 172.271 98.5C172.137 98.135 172.069 97.7489 172.071 97.36C172.062 96.9779 172.127 96.5978 172.261 96.24C172.381 95.912 172.557 95.6074 172.782 95.34C172.986 95.12 173.227 94.9372 173.493 94.8C173.757 94.6798 174.045 94.6184 174.335 94.62C174.536 94.6166 174.737 94.6505 174.926 94.72C175.126 94.7895 175.313 94.8945 175.477 95.03C175.658 95.1805 175.814 95.3595 175.937 95.56V94.74H176.468L176.498 99.89ZM175.957 97.29C175.953 96.943 175.87 96.6014 175.717 96.29C175.584 95.99 175.377 95.7285 175.116 95.53C174.885 95.3568 174.604 95.2621 174.315 95.26H174.154C173.939 95.2898 173.734 95.3685 173.553 95.49C173.362 95.6118 173.199 95.7719 173.073 95.96C172.931 96.1638 172.826 96.3905 172.762 96.63C172.701 96.8752 172.67 97.1272 172.672 97.38V97.55C172.672 97.7085 172.692 97.8664 172.732 98.02C172.793 98.2112 172.873 98.3956 172.973 98.57C173.109 98.8059 173.297 99.0077 173.523 99.16C173.76 99.3203 174.039 99.4072 174.325 99.41C174.628 99.4082 174.922 99.3022 175.156 99.11C175.416 98.9 175.619 98.6284 175.747 98.32C175.878 98.0022 175.949 97.6633 175.957 97.32" fill="#5D5D5F"/>
<path d="M178.27 92.8644L177.73 92.8698L177.799 99.6998L178.339 99.6944L178.27 92.8644Z" fill="#5D5D5F"/>
<path d="M182.097 99.86H180.825V93.04H182.037C182.389 93.0372 182.736 93.1305 183.039 93.31C183.319 93.4682 183.529 93.7249 183.63 94.03C183.72 94.2906 183.767 94.5642 183.77 94.84C183.776 94.9265 183.776 95.0134 183.77 95.1C183.76 95.2076 183.743 95.3145 183.72 95.42C183.691 95.5509 183.64 95.6761 183.57 95.79C183.521 95.8667 183.468 95.9402 183.409 96.01C183.347 96.0751 183.28 96.1353 183.209 96.19C183.404 96.2749 183.576 96.4052 183.71 96.57C183.843 96.7298 183.945 96.9129 184.01 97.11C184.062 97.3262 184.089 97.5476 184.091 97.77V98.06C184.091 98.12 184.091 98.29 184 98.55C183.947 98.8141 183.831 99.0613 183.66 99.27C183.498 99.4849 183.274 99.6454 183.019 99.73C182.73 99.8212 182.43 99.8684 182.127 99.87M181.376 93.68V96H181.697C181.956 96.0047 182.215 95.9778 182.468 95.92C182.67 95.8702 182.85 95.754 182.979 95.59C183.143 95.3574 183.218 95.0732 183.189 94.79C183.196 94.5843 183.148 94.3806 183.049 94.2C182.985 94.0788 182.892 93.9756 182.778 93.9C182.693 93.8465 182.603 93.8029 182.508 93.77C182.421 93.7362 182.33 93.7159 182.238 93.71C182.074 93.6966 181.91 93.6966 181.747 93.71H181.366L181.376 93.68ZM181.376 96.63V99.22H181.657H182.037C182.385 99.2347 182.73 99.1588 183.039 99C183.184 98.912 183.304 98.7888 183.388 98.6419C183.472 98.495 183.517 98.3292 183.52 98.16V97.9C183.54 97.7507 183.54 97.5993 183.52 97.45C183.485 97.3289 183.43 97.2141 183.359 97.11L183.189 96.91L183.029 96.8C182.741 96.6546 182.419 96.5889 182.097 96.61H181.426L181.376 96.63Z" fill="#5D5D5F"/>
<path d="M188.969 97.46H185.082C185.111 97.5851 185.131 97.7121 185.142 97.84C185.142 97.84 185.142 97.9599 185.213 98.1099C185.255 98.2922 185.337 98.4628 185.453 98.6099C185.57 98.7745 185.712 98.9197 185.874 99.04C186.011 99.1461 186.167 99.2242 186.334 99.27C186.468 99.2793 186.602 99.2793 186.735 99.27C187.026 99.2678 187.31 99.1847 187.556 99.03C187.852 98.7951 188.077 98.4838 188.207 98.13H188.828C188.713 98.4643 188.551 98.7807 188.348 99.07C188.169 99.3279 187.932 99.5402 187.656 99.69C187.389 99.834 187.089 99.9096 186.785 99.91C186.377 99.909 185.978 99.7834 185.643 99.55C185.282 99.2967 184.995 98.9514 184.812 98.55C184.61 98.1246 184.504 97.6605 184.501 97.19C184.494 96.7098 184.597 96.2344 184.802 95.8C184.968 95.3943 185.25 95.0464 185.613 94.8C185.949 94.5701 186.348 94.448 186.755 94.45H186.935L187.326 94.51C187.596 94.5803 187.844 94.7179 188.047 94.91C188.317 95.1479 188.526 95.446 188.658 95.78C188.775 95.9909 188.853 96.2213 188.888 96.46C188.943 96.7602 188.97 97.0648 188.969 97.37M185.102 96.82H188.358C188.281 96.3573 188.084 95.9229 187.787 95.56C187.653 95.4064 187.486 95.2851 187.299 95.2054C187.112 95.1257 186.908 95.0897 186.705 95.1C186.421 95.0956 186.142 95.1756 185.904 95.3299C185.675 95.4787 185.494 95.6906 185.383 95.94C185.243 96.2237 185.149 96.5273 185.102 96.84" fill="#5D5D5F"/>
<path d="M193.706 99.79H193.165V99C193.006 99.3014 192.767 99.5538 192.474 99.73C192.194 99.8897 191.876 99.9725 191.553 99.97C191.306 99.9818 191.059 99.9373 190.832 99.84C190.661 99.775 190.499 99.6876 190.351 99.58C190.2 99.4661 190.059 99.339 189.93 99.2C189.73 98.9797 189.577 98.7212 189.479 98.44C189.348 98.0744 189.284 97.6883 189.289 97.3C189.275 96.9176 189.339 96.5363 189.479 96.18C189.591 95.8484 189.768 95.5424 190 95.28C190.196 95.0559 190.434 94.8724 190.701 94.74C190.965 94.6199 191.253 94.5585 191.543 94.56C191.751 94.5581 191.957 94.592 192.154 94.66C192.346 94.7344 192.525 94.8391 192.685 94.97C192.868 95.1182 193.024 95.2976 193.145 95.5V94.67H193.676L193.706 99.79ZM193.165 97.2C193.165 96.8525 193.083 96.5098 192.925 96.2C192.792 95.9001 192.585 95.6386 192.324 95.44C192.09 95.2641 191.805 95.1693 191.513 95.17H191.372C191.149 95.192 190.935 95.2712 190.751 95.4C190.568 95.5278 190.409 95.6869 190.281 95.87C190.143 96.076 190.038 96.302 189.97 96.54C189.905 96.7848 189.872 97.0368 189.87 97.29V97.46C189.87 97.6186 189.89 97.7765 189.93 97.93C189.991 98.1212 190.071 98.3056 190.171 98.48C190.304 98.715 190.493 98.914 190.721 99.06C190.956 99.2261 191.235 99.3168 191.523 99.32C191.826 99.3151 192.118 99.2095 192.354 99.02C192.614 98.81 192.817 98.5385 192.945 98.23C193.086 97.9154 193.157 97.5745 193.155 97.23" fill="#5D5D5F"/>
<path d="M194.488 97.61V94.61H195.028V97.54C195.019 97.6665 195.019 97.7935 195.028 97.92C195.028 98.03 195.028 98.18 195.079 98.33C195.135 98.5458 195.238 98.7471 195.379 98.92C195.486 99.0432 195.621 99.1386 195.773 99.1978C195.924 99.2571 196.088 99.2784 196.25 99.26H196.561C196.752 99.2175 196.926 99.1201 197.062 98.98C197.205 98.8535 197.318 98.6962 197.392 98.52C197.454 98.3381 197.498 98.1505 197.523 97.96V97.39V97.17V94.64H198.073V99.79H197.523V99.23C197.382 99.4409 197.194 99.6153 196.973 99.7388C196.751 99.8623 196.504 99.9313 196.25 99.94C196.012 99.9246 195.777 99.881 195.549 99.81C195.394 99.778 195.249 99.7096 195.125 99.6105C195.001 99.5114 194.903 99.3844 194.838 99.24C194.695 98.9857 194.587 98.7132 194.518 98.43C194.469 98.1659 194.443 97.8984 194.438 97.63" fill="#5D5D5F"/>
<path d="M199.826 95.2601L199.856 99.7601H199.295L199.275 95.2601L198.453 95.2701L198.443 94.6101H199.265V92.9401L199.816 92.9301L199.826 94.6101L200.647 94.6001V95.2501L199.826 95.2601Z" fill="#5D5D5F"/>
<path d="M201.548 101.42L202.119 99.72L200.437 94.6H201.068L202.42 98.77L203.792 94.59L204.423 94.58L202.149 101.42H201.548Z" fill="#5D5D5F"/>
<path d="M206.477 97.78H207.028C207.051 98.0386 207.105 98.2937 207.188 98.54C207.247 98.7189 207.358 98.8758 207.508 98.99C207.599 99.0627 207.705 99.114 207.819 99.14C207.905 99.1513 207.993 99.1513 208.079 99.14C208.244 99.1392 208.405 99.0979 208.55 99.02C208.702 98.9336 208.832 98.814 208.931 98.67C209.084 98.3846 209.16 98.0639 209.151 97.74C209.154 97.5884 209.137 97.4371 209.101 97.29C209.051 97.0875 208.939 96.9057 208.78 96.77C208.625 96.6312 208.445 96.5227 208.25 96.45L207.629 96.21C207.345 96.0971 207.099 95.9052 206.922 95.6569C206.744 95.4087 206.642 95.1147 206.627 94.81V94.6C206.626 94.3532 206.66 94.1075 206.727 93.87C206.782 93.6586 206.881 93.461 207.018 93.29C207.112 93.1805 207.22 93.0831 207.338 93L207.508 92.91C207.586 92.8744 207.667 92.8443 207.749 92.82C207.865 92.809 207.983 92.809 208.099 92.82C208.31 92.8207 208.518 92.8649 208.71 92.95C208.987 93.0843 209.205 93.3157 209.321 93.6C209.439 93.9224 209.517 94.2584 209.552 94.6H209.021C208.951 93.96 208.81 93.6 208.58 93.55C208.429 93.4945 208.27 93.4609 208.109 93.45C207.962 93.4522 207.818 93.4899 207.689 93.56C207.541 93.6569 207.415 93.7828 207.318 93.93C207.197 94.1356 207.138 94.3717 207.148 94.61C207.135 94.856 207.213 95.0981 207.368 95.29C207.518 95.4508 207.698 95.5801 207.899 95.67L208.59 95.95C208.811 96.0524 209.019 96.1799 209.211 96.33C209.383 96.4902 209.507 96.6942 209.572 96.92C209.655 97.1648 209.699 97.4213 209.702 97.68C209.705 97.9328 209.675 98.185 209.612 98.43L209.421 98.95C209.335 99.0981 209.242 99.2416 209.141 99.38C209.017 99.551 208.847 99.6829 208.65 99.76C208.459 99.8392 208.256 99.8832 208.049 99.89C207.757 99.8893 207.472 99.7946 207.238 99.62C206.985 99.424 206.788 99.1654 206.667 98.87C206.516 98.5371 206.441 98.1752 206.447 97.81" fill="#5D5D5F"/>
<path d="M213.949 96.72V99.72H213.408V96.81C213.422 96.3676 213.318 95.9295 213.107 95.54C213.007 95.3859 212.866 95.2623 212.7 95.1829C212.534 95.1035 212.349 95.0714 212.166 95.09C211.939 95.088 211.717 95.1504 211.525 95.27C211.335 95.3757 211.181 95.536 211.084 95.73C210.995 95.9019 210.938 96.0881 210.914 96.28C210.914 96.45 210.914 96.57 210.914 96.64C210.914 96.71 210.914 96.85 210.914 97.02V97.21V99.73H210.343V92.9H210.874V95.17C211.04 94.9174 211.277 94.7192 211.555 94.6L211.985 94.48H212.276C212.673 94.5012 213.055 94.6444 213.368 94.89C213.758 95.17 213.949 95.8 213.959 96.77" fill="#5D5D5F"/>
<path d="M214.51 97.1C214.506 96.76 214.56 96.4219 214.67 96.1C214.786 95.7805 214.955 95.4829 215.171 95.22C215.368 94.9661 215.617 94.7579 215.902 94.61C216.162 94.4721 216.45 94.3968 216.744 94.39H216.914C217.255 94.4193 217.582 94.544 217.855 94.75C218.052 94.9063 218.227 95.0879 218.376 95.29C218.534 95.4995 218.666 95.7279 218.767 95.97C218.906 96.3195 218.971 96.6941 218.957 97.07C218.966 97.461 218.905 97.8505 218.777 98.22C218.649 98.5669 218.455 98.886 218.206 99.16C218.026 99.3653 217.808 99.5349 217.565 99.66C217.315 99.7907 217.036 99.856 216.754 99.85H216.653C216.402 99.858 216.153 99.7993 215.932 99.68C215.766 99.5834 215.609 99.473 215.461 99.35C215.345 99.2459 215.24 99.1284 215.151 99C214.755 98.4586 214.531 97.8103 214.51 97.14M215.101 97.14C215.1 97.3482 215.12 97.5559 215.161 97.76C215.221 97.9803 215.302 98.1945 215.401 98.4C215.525 98.6485 215.72 98.8541 215.962 98.99C216.196 99.1465 216.472 99.23 216.754 99.23C217.034 99.2307 217.309 99.1508 217.545 99C217.816 98.8218 218.028 98.5679 218.156 98.27C218.322 97.9135 218.401 97.5228 218.386 97.13C218.385 96.8239 218.335 96.5199 218.236 96.23C218.156 95.9922 218.038 95.7692 217.885 95.57C217.731 95.4008 217.543 95.2647 217.335 95.17C217.23 95.1212 217.118 95.0875 217.004 95.07H216.734C216.526 95.0677 216.321 95.1122 216.133 95.2C215.93 95.2961 215.75 95.4321 215.602 95.6C215.433 95.7966 215.303 96.0241 215.221 96.27C215.134 96.5583 215.093 96.8588 215.101 97.16" fill="#5D5D5F"/>
<path d="M221.652 94.49H222.063L223.074 98.34L224.096 94.48L224.677 94.47L223.254 99.64H222.894L221.872 95.73L220.891 99.65H220.53L219.058 94.51H219.609L220.69 98.36L221.652 94.49Z" fill="#5D5D5F"/>
<path d="M316.516 70.5C316.43 70.0738 316.239 69.6755 315.961 69.3406C315.683 69.0056 315.327 68.7443 314.924 68.58C313.849 68.1194 312.687 67.9009 311.518 67.94C309.401 67.94 307.932 68.6067 307.111 69.94C306.28 71.26 305.879 73.32 305.889 76.15C305.759 78.2514 306.329 80.3366 307.512 82.08C308.014 82.7313 308.665 83.2529 309.411 83.6009C310.157 83.9489 310.976 84.1132 311.799 84.08C313.697 84.13 315.569 83.6186 317.177 82.61C318.075 82.035 318.803 81.2317 319.288 80.2827C319.772 79.3337 319.994 78.2732 319.932 77.21H320.403C320.449 78.2613 320.238 79.3081 319.788 80.2595C319.337 81.2109 318.661 82.0384 317.818 82.6701C315.734 84.1101 313.227 84.814 310.697 84.6701C308.26 84.6839 305.873 83.989 303.826 82.6701C301.281 81.0567 300.003 78.9967 299.989 76.49C299.993 75.1437 300.347 73.8216 301.018 72.6538C301.689 71.4859 302.653 70.5127 303.816 69.83C305.867 68.3796 308.313 67.5878 310.827 67.56C312.361 67.5359 313.892 67.7244 315.374 68.12C317.484 68.7134 318.793 69.6334 319.301 70.88C319.463 71.2648 319.561 71.6735 319.591 72.09C319.591 72.93 319.03 73.57 317.888 74.01C317.423 74.2079 316.922 74.3066 316.416 74.3C315.761 74.3111 315.117 74.1303 314.563 73.78C314.312 73.6366 314.103 73.43 313.958 73.1808C313.812 72.9317 313.734 72.6486 313.732 72.36C313.733 72.0889 313.803 71.8225 313.936 71.5862C314.07 71.3499 314.261 71.1516 314.493 71.0101C315.111 70.6276 315.83 70.4394 316.556 70.47" fill="#E31588"/>
<path d="M344.622 75.9199C344.622 78.4599 343.367 80.5733 340.856 82.2599C338.561 83.7946 335.856 84.6031 333.093 84.5799C330.37 84.6574 327.685 83.9341 325.371 82.4999C324.207 81.8576 323.237 80.9161 322.56 79.7732C321.884 78.6302 321.526 77.3274 321.524 75.9999C321.524 73.4699 322.756 71.3699 325.291 69.7099C327.59 68.1969 330.289 67.4031 333.043 67.4299C335.768 67.3581 338.456 68.0809 340.776 69.5099C341.939 70.1231 342.914 71.0389 343.598 72.1603C344.282 73.2817 344.65 74.567 344.662 75.8799M338.763 75.8799C338.763 72.9799 338.382 70.9499 337.651 69.7699C336.819 68.4299 335.277 67.7699 333.043 67.7699C332.207 67.6952 331.365 67.8406 330.603 68.1915C329.84 68.5424 329.183 69.0866 328.696 69.7699C327.835 71.0699 327.414 73.1399 327.424 75.9599C327.434 78.7799 327.835 80.9599 328.616 82.2299C329.397 83.4999 330.91 84.2299 333.133 84.1599C333.973 84.2352 334.817 84.0902 335.583 83.7394C336.349 83.3886 337.01 82.8442 337.5 82.1599C338.352 80.8199 338.783 78.7399 338.763 75.9099" fill="#E31588"/>
<path d="M385.94 72C386.162 70.9599 386.603 69.9784 387.232 69.12C387.718 68.5502 388.316 68.0871 388.99 67.76C389.665 67.433 390.399 67.2491 391.148 67.22C391.399 67.22 391.699 67.22 392.02 67.17C392.34 67.12 392.581 67.17 392.731 67.17C394.711 67.0577 396.676 67.5683 398.35 68.63C398.874 68.9418 399.312 69.3796 399.624 69.9036C399.935 70.4276 400.11 71.0212 400.133 71.63V82.05C400.099 82.3947 400.165 82.7419 400.323 83.05C400.469 83.1917 400.654 83.2859 400.854 83.32C401.358 83.4283 401.871 83.4919 402.387 83.51C403.128 83.51 403.749 83.58 404.24 83.58V83.93L390.778 84.01V83.65C391.679 83.65 392.39 83.65 392.881 83.58C393.424 83.5266 393.956 83.3987 394.464 83.2C394.694 83.06 394.814 82.69 394.804 82.09V72.1401C394.837 71.1618 394.677 70.1867 394.333 69.27C394.102 68.7563 393.716 68.3267 393.23 68.0403C392.744 67.7538 392.182 67.6245 391.619 67.67C391.01 67.6574 390.404 67.7668 389.838 67.9918C389.272 68.2168 388.757 68.5529 388.324 68.98C387.329 69.96 386.574 71.7234 386.06 74.27V82.1401C386.027 82.4836 386.089 82.8296 386.24 83.1401C386.389 83.253 386.565 83.3254 386.751 83.35C387.231 83.4431 387.716 83.5066 388.203 83.54C388.871 83.6 389.522 83.63 390.157 83.63V83.99L376.645 84.06V83.7C377.77 83.7273 378.896 83.6301 380 83.41L380.401 83.29C380.621 83.16 380.731 82.77 380.731 82.15V72.15C380.769 71.1715 380.609 70.1954 380.26 69.28C380.024 68.7639 379.633 68.3337 379.142 68.0489C378.65 67.7641 378.082 67.6387 377.516 67.69C376.705 67.6662 375.903 67.8641 375.197 68.2625C374.491 68.6608 373.907 69.2444 373.509 69.95C372.749 71.3482 372.238 72.8674 371.997 74.44V82.15C371.97 82.4933 372.032 82.8377 372.177 83.15C372.336 83.2724 372.521 83.3547 372.718 83.3901C373.222 83.4991 373.735 83.5626 374.251 83.58C374.992 83.58 375.603 83.65 376.094 83.65V84L361.74 84.07V83.72C362.532 83.72 363.333 83.72 364.144 83.62C364.876 83.5747 365.604 83.4676 366.318 83.3C366.548 83.16 366.658 82.78 366.648 82.15L366.588 70.25C366.588 70.02 366.588 69.79 366.588 69.55C366.584 69.4456 366.559 69.3431 366.514 69.2486C366.469 69.1542 366.406 69.0696 366.328 69C366.143 68.7898 365.909 68.6284 365.647 68.53C364.352 68.3626 363.045 68.3057 361.74 68.36V68L371.937 67.27V72.27C372.116 71.2001 372.515 70.1787 373.109 69.27C373.56 68.6689 374.141 68.1769 374.808 67.8307C375.476 67.4844 376.213 67.2928 376.965 67.27L377.967 67.21H378.628C380.57 67.0661 382.506 67.5538 384.147 68.6C384.691 68.9844 385.133 69.4962 385.434 70.0908C385.734 70.6853 385.884 71.3443 385.87 72.01" fill="#E31588"/>
<path d="M425.064 75.4899C425.064 78.0299 423.812 80.1399 421.298 81.8299C418.992 83.3041 416.321 84.1075 413.584 84.1499C410.847 84.1923 408.152 83.472 405.802 82.0699C404.634 81.4394 403.658 80.5072 402.974 79.3708C402.29 78.2344 401.925 76.9355 401.916 75.6099C401.916 73.0766 403.171 70.9799 405.682 69.3199C407.983 67.8091 410.681 67.0155 413.435 67.0399C416.163 66.9708 418.852 67.6933 421.177 69.1199C422.338 69.7365 423.31 70.653 423.994 71.7737C424.678 72.8943 425.047 74.1779 425.064 75.4899ZM419.164 75.4899C419.164 72.5899 418.794 70.5533 418.052 69.3799C417.211 68.0466 415.675 67.3799 413.445 67.3799C412.607 67.3065 411.765 67.4523 411.001 67.803C410.237 68.1537 409.577 68.6972 409.088 69.3799C408.226 70.6999 407.806 72.7599 407.816 75.5799C407.826 78.3999 408.226 80.5799 409.008 81.8499C409.789 83.1199 411.301 83.7999 413.525 83.7799C414.363 83.8575 415.207 83.7135 415.972 83.3624C416.737 83.0114 417.395 82.4656 417.882 81.7799C418.753 80.4399 419.174 78.3699 419.164 75.5399" fill="#E31588"/>
<path d="M426.786 84.08L426.646 59.48C426.667 59.2831 426.648 59.084 426.589 58.8948C426.531 58.7056 426.434 58.5304 426.305 58.38C426.113 58.1972 425.879 58.0634 425.624 57.99C424.174 57.8292 422.715 57.7724 421.257 57.82V57.46L431.984 56.73L432.064 71.92C432.089 71.2689 432.25 70.6302 432.536 70.0447C432.823 69.4593 433.228 68.9399 433.727 68.52C434.244 68.0045 434.858 67.5967 435.533 67.3203C436.209 67.0439 436.933 66.9044 437.664 66.91C439.146 66.8232 440.63 67.058 442.014 67.5983C443.397 68.1386 444.647 68.9716 445.677 70.04C446.453 70.7943 447.059 71.7053 447.454 72.7122C447.85 73.719 448.025 74.7985 447.969 75.8786C447.913 76.9586 447.627 78.0143 447.13 78.9751C446.633 79.9358 445.936 80.7796 445.086 81.45C443.244 83.1061 440.853 84.0217 438.375 84.02C436.642 84.0999 434.908 83.9041 433.236 83.44C431.896 82.8886 430.691 82.0565 429.701 81L427.297 84.06L426.786 84.08ZM432.084 77.74C432.084 80.2066 432.752 81.8966 434.088 82.81C435.187 83.4513 436.454 83.7475 437.724 83.66C438.45 83.6752 439.162 83.4637 439.762 83.0549C440.362 82.6462 440.819 82.0606 441.069 81.38C441.815 79.4706 442.156 77.4276 442.071 75.38C442.071 72.44 441.67 70.38 440.899 69.13C440.579 68.5554 440.107 68.0798 439.535 67.7552C438.962 67.4307 438.312 67.2697 437.654 67.29C436.918 67.2869 436.192 67.4552 435.533 67.7816C434.874 68.1079 434.3 68.5834 433.857 69.17C432.563 70.8926 431.931 73.0214 432.074 75.17L432.084 77.74Z" fill="#E31588"/>
<path d="M455.082 75.5001C455.082 78.3001 455.576 80.3234 456.565 81.5701C457.098 82.2106 457.777 82.7139 458.546 83.0376C459.315 83.3613 460.15 83.4959 460.982 83.4301C462.915 83.4573 464.817 82.9409 466.471 81.9401C467.345 81.4783 468.076 80.7854 468.583 79.9371C469.09 79.0889 469.354 78.1178 469.345 77.1301H469.766C469.773 78.1031 469.529 79.0614 469.057 79.9128C468.585 80.7641 467.901 81.4795 467.072 81.9901C464.931 83.2603 462.486 83.9308 459.995 83.9308C457.504 83.9308 455.06 83.2603 452.919 81.9901C451.806 81.3879 450.875 80.5007 450.22 79.4197C449.565 78.3388 449.21 77.1032 449.193 75.8401C449.183 74.5081 449.507 73.1949 450.135 72.0197C450.763 70.8444 451.675 69.8443 452.788 69.1101C454.865 67.6192 457.362 66.8245 459.92 66.8401C462.06 66.7489 464.182 67.2544 466.05 68.3001C468.424 69.7501 469.636 72.1401 469.656 75.4701L455.082 75.5001ZM464.878 74.9801C464.979 72.9965 464.637 71.0153 463.877 69.1801C463.614 68.562 463.167 68.0391 462.598 67.6816C462.029 67.3241 461.363 67.149 460.691 67.1801C458.628 67.1801 457.179 67.8201 456.344 69.1001C455.493 70.3801 455.092 72.3501 455.102 75.0101L464.878 74.9801Z" fill="#E31588"/>
<path d="M484.5 72V69.72C484.546 69.3328 484.502 68.9401 484.372 68.5725C484.242 68.2048 484.029 67.8721 483.749 67.6C482.764 67.1322 481.668 66.9486 480.584 67.07C479.41 67.0499 478.241 67.2291 477.128 67.6C476.339 67.8085 475.658 68.309 475.225 69C475.415 68.9813 475.606 68.9813 475.796 69C476.431 68.9731 477.055 69.1794 477.549 69.58C477.753 69.7367 477.921 69.9359 478.04 70.1639C478.159 70.3918 478.228 70.643 478.24 70.9C478.236 71.1905 478.154 71.4747 478.003 71.7228C477.851 71.9709 477.635 72.1737 477.378 72.31C476.78 72.6896 476.084 72.8845 475.375 72.87C474.926 72.8782 474.481 72.786 474.073 72.6C472.971 72.11 472.42 71.49 472.42 70.73C472.436 70.292 472.545 69.8623 472.741 69.47C473.272 68.47 474.584 67.7 476.747 67.22C478.256 66.8754 479.797 66.6944 481.345 66.68C483.517 66.5598 485.69 66.9218 487.705 67.74C488.997 68.39 489.638 69.21 489.638 70.21L489.688 78.85C489.653 79.8206 489.717 80.7923 489.879 81.75C490.004 82.18 490.281 82.5503 490.659 82.7928C491.036 83.0353 491.488 83.1337 491.932 83.07C492.334 83.116 492.741 83.0394 493.098 82.8502C493.456 82.6609 493.748 82.368 493.935 82.01C494.324 81.0421 494.495 80.001 494.436 78.96C494.436 78.6 494.436 78.23 494.436 77.87C494.436 77.51 494.436 77.12 494.436 76.74V76.38H495.117V78.11C495.117 78.65 495.117 79.18 495.177 79.68C495.313 80.765 495.034 81.8611 494.396 82.75C493.705 83.41 492.323 83.75 490.229 83.75C488.98 83.8278 487.729 83.6333 486.563 83.18C486.09 82.9519 485.674 82.6205 485.347 82.2102C485.019 81.8 484.788 81.3214 484.67 80.81C483.864 82.099 482.59 83.0269 481.114 83.4C479.873 83.7052 478.597 83.8464 477.318 83.82C475.898 83.8573 474.486 83.5984 473.172 83.06C472.479 82.8471 471.871 82.4229 471.433 81.8472C470.994 81.2714 470.748 80.5729 470.728 79.85C470.759 79.0954 470.995 78.3633 471.409 77.7314C471.824 77.0994 472.401 76.591 473.081 76.26C474.847 75.2546 476.83 74.6918 478.861 74.62C480.407 74.5893 481.944 74.371 483.438 73.97C483.825 73.8286 484.151 73.561 484.366 73.2106C484.581 72.8602 484.67 72.4477 484.62 72.04M484.5 79.12V73.88C483.937 74.356 483.233 74.6336 482.497 74.67L479.923 74.93C479.376 74.9861 478.846 75.1495 478.363 75.4109C477.88 75.6724 477.453 76.0265 477.108 76.4532C476.763 76.8798 476.505 77.3704 476.35 77.8967C476.196 78.423 476.147 78.9747 476.206 79.52C476.102 80.5902 476.333 81.6665 476.868 82.6C477.13 82.8839 477.455 83.1037 477.816 83.2424C478.177 83.3811 478.566 83.4351 478.951 83.4C480.344 83.4023 481.702 82.9609 482.827 82.14C483.339 81.82 483.763 81.3785 484.062 80.855C484.36 80.3315 484.525 79.7424 484.54 79.14" fill="#E31588"/>
<path d="M510.773 69C510.824 68.804 510.827 68.5985 510.781 68.4012C510.736 68.2038 510.643 68.0204 510.512 67.8663C510.38 67.7123 510.213 67.5921 510.025 67.5162C509.837 67.4403 509.633 67.4107 509.431 67.43C508.957 67.3767 507.415 67.3567 504.804 67.37V67L516.092 66.53L516.162 79.85C516.143 80.1831 516.143 80.517 516.162 80.85C516.156 81.1215 516.244 81.3866 516.413 81.6L516.753 81.99C518.169 82.2524 519.613 82.3364 521.05 82.24V82.6L510.793 83.28V78.28C510.544 79.4228 509.962 80.4666 509.121 81.28C507.982 82.4548 506.447 83.1673 504.814 83.28C504.583 83.2952 504.353 83.2952 504.122 83.28H503.451C501.597 83.4008 499.756 82.8973 498.223 81.85C497.736 81.5245 497.335 81.0862 497.054 80.5726C496.773 80.0589 496.621 79.4851 496.61 78.9L496.56 68.64C496.599 68.2861 496.507 67.9301 496.3 67.64C496.088 67.45 495.813 67.3465 495.528 67.35C495.198 67.35 494.306 67.35 492.884 67.35H491.582V67L501.879 66.53L501.939 79.45C501.838 80.4126 502.099 81.3782 502.67 82.16C502.952 82.4076 503.281 82.5969 503.637 82.7171C503.993 82.8372 504.369 82.8858 504.744 82.86C505.579 82.8589 506.403 82.6641 507.15 82.291C507.898 81.9179 508.548 81.3767 509.051 80.71C510.164 79.4272 510.779 77.7876 510.783 76.09L510.773 69Z" fill="#E31588"/>
<path d="M534.362 74.76V76.57C534.362 77.1834 534.382 77.7634 534.422 78.31C534.422 80.14 534.141 81.41 533.54 82.09C532.712 83.0434 531.106 83.5234 528.722 83.53C526.979 83.6745 525.233 83.2875 523.714 82.42C523.194 82.0576 522.774 81.5694 522.494 81.001C522.214 80.4327 522.082 79.8028 522.112 79.17L522.062 68H517.494V67.63C520.205 67.2946 522.688 65.9478 524.445 63.86C525.698 62.28 526.298 58.74 526.288 56.78H527.29L527.34 66.78H533.911V68H527.34V78.66C527.293 79.5801 527.374 80.5021 527.581 81.4C527.78 81.8934 528.139 82.3065 528.599 82.5744C529.06 82.8423 529.596 82.9498 530.125 82.88C530.746 82.9355 531.368 82.7969 531.907 82.4833C532.445 82.1698 532.872 81.6968 533.13 81.13C533.545 79.682 533.708 78.1732 533.61 76.67V74.79L534.362 74.76Z" fill="#E31588"/>
<path d="M541.323 75.0001C541.323 77.8001 541.814 79.8234 542.795 81.0701C543.327 81.7092 544.005 82.2116 544.772 82.5352C545.539 82.8588 546.372 82.9942 547.202 82.9301C549.142 82.9573 551.051 82.4411 552.711 81.4401C553.582 80.9743 554.309 80.2803 554.814 79.4327C555.318 78.5851 555.582 77.6161 555.576 76.6301H556.047C556.046 77.6027 555.798 78.5592 555.325 79.4095C554.851 80.2597 554.169 80.9757 553.342 81.4901C551.201 82.7643 548.754 83.437 546.261 83.437C543.768 83.437 541.321 82.7643 539.179 81.4901C538.07 80.8885 537.142 80.0023 536.49 78.9229C535.839 77.8436 535.488 76.6102 535.473 75.3501C535.457 74.0168 535.778 72.7009 536.406 71.5244C537.035 70.3479 537.951 69.3489 539.069 68.6201C541.141 67.1269 543.636 66.3317 546.191 66.3501C548.33 66.2589 550.453 66.7645 552.321 67.8101C554.711 69.2701 555.907 71.6667 555.907 75.0001H541.323ZM551.109 74.4801C551.2 72.4971 550.858 70.5181 550.107 68.6801C549.842 68.0637 549.395 67.5424 548.826 67.1852C548.257 66.8281 547.593 66.6519 546.922 66.6801C544.849 66.6801 543.406 67.3301 542.565 68.6001C541.723 69.8701 541.323 71.8501 541.343 74.5101L551.109 74.4801Z" fill="#E31588"/>
<path d="M548.775 58.26L542.855 62.57L552.401 58.9L548.775 58.26Z" fill="#E31588"/>
<path d="M358.464 68.55C359.947 67.79 360.718 67.3701 360.788 67.3201V73.2101L360.318 73.1401C359.793 71.5927 358.79 70.2515 357.453 69.3101C356.041 68.262 354.324 67.7068 352.565 67.7301C351.42 67.6933 350.28 67.8836 349.209 68.2901C348.69 68.4603 348.239 68.7939 347.925 69.2408C347.611 69.6878 347.45 70.2243 347.467 70.7701C347.467 71.7101 348.118 72.4401 349.4 72.9501C351.179 73.5144 353.006 73.9127 354.859 74.1401C356.839 74.3573 358.775 74.8767 360.598 75.6801C361.336 76.0484 361.95 76.6222 362.368 77.3321C362.786 78.042 362.989 78.8575 362.952 79.6801C362.968 80.4867 362.739 81.2794 362.296 81.954C361.853 82.6286 361.215 83.1536 360.468 83.4601C358.898 84.1748 357.184 84.517 355.46 84.4601C354.26 84.502 353.06 84.4317 351.874 84.2501C350.618 83.9235 349.437 83.3563 348.398 82.58L346.024 84.5101V77.58H346.435C346.867 78.7443 347.407 79.8658 348.047 80.9301C348.523 81.6837 349.147 82.3334 349.88 82.8401C350.629 83.3561 351.474 83.7166 352.365 83.9001C353.522 84.0619 354.692 84.1255 355.86 84.0901C356.869 84.1279 357.872 83.9112 358.775 83.4601C359.181 83.271 359.523 82.9699 359.763 82.5925C360.003 82.215 360.129 81.7769 360.127 81.33C360.124 80.7591 359.948 80.2026 359.62 79.7346C359.293 79.2665 358.83 78.9092 358.294 78.7101C356.68 78.1181 354.997 77.7318 353.286 77.5601C351.328 77.3766 349.422 76.827 347.667 75.9401C346.964 75.6217 346.365 75.1125 345.938 74.4707C345.512 73.8289 345.274 73.0802 345.253 72.3101C345.266 71.6071 345.456 70.9187 345.806 70.3087C346.157 69.6986 346.655 69.1866 347.256 68.8201C348.694 67.8324 350.409 67.3247 352.154 67.3701C353.454 67.3408 354.75 67.506 356 67.86C357.443 68.29 358.284 68.52 358.505 68.55" fill="#E31588"/>
<path d="M479.462 89.0701L475.756 97.5701H474.704L470.918 89.11H471.97L475.235 96.3901L478.41 89.08L479.462 89.0701Z" fill="#E11686"/>
<path d="M480.784 89.38C480.787 89.22 480.852 89.0673 480.967 88.9551C481.081 88.8429 481.235 88.78 481.395 88.78C481.475 88.7787 481.554 88.7932 481.628 88.8228C481.702 88.8523 481.77 88.8963 481.827 88.9521C481.883 89.008 481.929 89.0746 481.959 89.1481C481.99 89.2215 482.006 89.3004 482.006 89.38C482.008 89.4601 481.993 89.5397 481.964 89.6142C481.934 89.6887 481.89 89.7567 481.834 89.8143C481.779 89.8719 481.712 89.9179 481.638 89.9498C481.565 89.9816 481.485 89.9987 481.405 90C481.24 90 481.083 89.9347 480.966 89.8184C480.85 89.7021 480.784 89.5444 480.784 89.38ZM480.944 91.16H481.866V97.54H480.934L480.944 91.16Z" fill="#E11686"/>
<path d="M488.738 96.06L489.318 96.66C488.616 97.3025 487.697 97.6592 486.744 97.66C486.31 97.6561 485.881 97.5664 485.482 97.396C485.083 97.2257 484.722 96.9781 484.419 96.6675C484.117 96.357 483.878 95.9896 483.719 95.5867C483.559 95.1837 483.481 94.7532 483.489 94.32C483.472 93.8943 483.539 93.4694 483.688 93.07C483.837 92.6707 484.064 92.3049 484.355 91.994C484.647 91.6832 484.998 91.4334 485.388 91.2593C485.777 91.0852 486.197 90.9902 486.624 90.98C488.557 90.98 489.629 92.42 489.629 94.66H484.4C484.434 95.2427 484.691 95.7901 485.118 96.1886C485.545 96.5871 486.11 96.8061 486.694 96.8C487.444 96.8165 488.173 96.5525 488.738 96.06ZM484.451 93.86H488.758C488.758 93.5896 488.703 93.322 488.597 93.0732C488.491 92.8245 488.335 92.5999 488.139 92.413C487.944 92.226 487.712 92.0806 487.458 91.9856C487.205 91.8905 486.935 91.8478 486.664 91.86C486.114 91.8642 485.584 92.0703 485.176 92.4391C484.768 92.8078 484.51 93.3135 484.451 93.86Z" fill="#E11686"/>
<path d="M494.587 97.21C494.25 97.4743 493.834 97.6187 493.405 97.62C493.19 97.6318 492.974 97.5978 492.773 97.5203C492.572 97.4428 492.39 97.3235 492.238 97.1704C492.087 97.0172 491.97 96.8337 491.894 96.6319C491.819 96.4301 491.788 96.2147 491.802 96V91.93H490.801V91.1H491.802V89.35H492.734V91.1H494.296V91.93H492.724V96C492.717 96.0985 492.73 96.1974 492.761 96.291C492.793 96.3846 492.843 96.4711 492.908 96.5454C492.973 96.6197 493.052 96.6805 493.141 96.7242C493.23 96.7679 493.326 96.7936 493.425 96.8C493.548 96.8023 493.67 96.7796 493.784 96.7331C493.897 96.6867 494 96.6176 494.086 96.53L494.587 97.21Z" fill="#E11686"/>
<path d="M501.448 93.3701V97.4301H500.517V93.4901C500.538 93.2672 500.512 93.0425 500.441 92.8302C500.37 92.6179 500.255 92.4227 500.104 92.2571C499.953 92.0914 499.77 91.959 499.565 91.8683C499.36 91.7776 499.138 91.7305 498.914 91.7301C498.43 91.6935 497.95 91.8461 497.576 92.1558C497.203 92.4655 496.964 92.9081 496.911 93.3901V97.4501H495.989V91.0701H496.921V92.0701C497.135 91.7073 497.442 91.4072 497.809 91.2001C498.177 90.9929 498.592 90.886 499.014 90.8901C499.342 90.8769 499.668 90.9324 499.973 91.053C500.278 91.1737 500.553 91.3568 500.783 91.5905C501.012 91.8242 501.19 92.1033 501.304 92.4098C501.419 92.7164 501.468 93.0435 501.448 93.3701Z" fill="#E11686"/>
<path d="M508.639 93.51V97.4H507.708V96.4C507.459 96.7636 507.124 97.06 506.733 97.2624C506.341 97.4649 505.905 97.5671 505.464 97.56C505.176 97.5963 504.883 97.5722 504.604 97.4892C504.325 97.4062 504.067 97.2662 503.846 97.078C503.624 96.8898 503.444 96.6577 503.318 96.3963C503.191 96.135 503.121 95.8501 503.11 95.56C503.129 95.2536 503.209 94.9541 503.347 94.6792C503.484 94.4044 503.675 94.1599 503.908 93.9603C504.142 93.7606 504.413 93.6099 504.706 93.5171C504.999 93.4243 505.308 93.3913 505.614 93.42C506.319 93.4306 507.019 93.5486 507.688 93.77V93.53C507.722 93.2891 507.701 93.0437 507.627 92.8119C507.553 92.5801 507.427 92.368 507.26 92.1912C507.093 92.0145 506.887 91.8776 506.66 91.7908C506.432 91.7041 506.188 91.6696 505.945 91.69C505.286 91.739 504.648 91.9411 504.082 92.28L503.711 91.53C504.416 91.1434 505.202 90.9276 506.005 90.9C506.358 90.8645 506.715 90.9075 507.049 91.0259C507.383 91.1442 507.687 91.3349 507.939 91.5844C508.191 91.8339 508.384 92.136 508.505 92.4689C508.626 92.8018 508.672 93.1573 508.639 93.51ZM507.718 95.4V94.4C507.088 94.2264 506.438 94.1423 505.785 94.15C504.833 94.15 504.032 94.7 504.032 95.46C504.032 96.22 504.733 96.72 505.634 96.71C506.076 96.7394 506.515 96.6285 506.889 96.3931C507.264 96.1578 507.554 95.8101 507.718 95.4Z" fill="#E11686"/>
<path d="M519.848 93.27V97.33H518.916V93.39C518.943 93.1758 518.925 92.9585 518.863 92.7516C518.802 92.5447 518.698 92.3527 518.559 92.1876C518.42 92.0224 518.248 91.8877 518.055 91.7917C517.861 91.6958 517.65 91.6407 517.434 91.63C517.209 91.6175 516.985 91.6515 516.774 91.7297C516.564 91.808 516.371 91.9288 516.21 92.0846C516.048 92.2404 515.92 92.4279 515.834 92.6353C515.748 92.8428 515.707 93.0656 515.711 93.29V97.35H514.84V93.41C514.865 93.1966 514.845 92.9803 514.783 92.7747C514.721 92.569 514.617 92.3782 514.478 92.2141C514.339 92.0501 514.168 91.9163 513.975 91.821C513.783 91.7256 513.572 91.6708 513.357 91.66C513.133 91.6461 512.909 91.6787 512.698 91.7558C512.488 91.8329 512.295 91.9528 512.133 92.1078C511.971 92.2629 511.844 92.4498 511.758 92.6567C511.672 92.8636 511.63 93.086 511.634 93.31V97.37H510.713V90.99H511.644V91.93C511.816 91.5893 512.082 91.3048 512.41 91.1099C512.738 90.915 513.116 90.8179 513.497 90.83C513.94 90.8162 514.376 90.9383 514.747 91.1797C515.117 91.4211 515.405 91.7702 515.571 92.18C515.721 91.762 516.001 91.4031 516.371 91.1565C516.741 90.9098 517.18 90.7883 517.624 90.81C517.935 90.8172 518.241 90.8875 518.523 91.0168C518.805 91.1461 519.058 91.3315 519.267 91.5618C519.475 91.7921 519.634 92.0624 519.734 92.3561C519.834 92.6498 519.872 92.9607 519.848 93.27Z" fill="#E11686"/>
<path d="M525.036 95.83L528.151 93.39C529.153 92.58 529.474 92.02 529.474 91.39C529.468 91.2303 529.429 91.0736 529.359 90.9296C529.29 90.7856 529.192 90.6575 529.07 90.5533C528.949 90.4491 528.807 90.371 528.655 90.324C528.502 90.277 528.341 90.262 528.182 90.28C527.773 90.2988 527.373 90.4103 527.014 90.606C526.655 90.8018 526.345 91.0768 526.108 91.41L524.946 90.29C525.319 89.7708 525.811 89.3482 526.381 89.0576C526.95 88.7671 527.582 88.617 528.222 88.62C528.607 88.5786 528.996 88.6165 529.366 88.7313C529.736 88.8461 530.079 89.0354 530.372 89.2875C530.666 89.5396 530.905 89.8491 531.074 90.197C531.244 90.5448 531.34 90.9236 531.357 91.31C531.357 92.44 530.866 93.31 529.353 94.41L527.811 95.61H531.407V97.25H524.996L525.036 95.83Z" fill="#E11686"/>
<path d="M532.709 93C532.709 90.43 534.251 88.61 536.495 88.6C538.739 88.59 540.321 90.39 540.331 92.96C540.341 95.53 538.779 97.36 536.535 97.37C534.292 97.38 532.719 95.6 532.709 93ZM538.458 93C538.458 91.41 537.647 90.28 536.455 90.28C535.263 90.28 534.512 91.43 534.522 93.02C534.532 94.61 535.343 95.76 536.475 95.75C537.607 95.74 538.468 94.58 538.458 93Z" fill="#E11686"/>
<path d="M541.563 95.74L544.678 93.3C545.68 92.49 546 91.94 546 91.3C545.993 91.1409 545.953 90.9849 545.883 90.8416C545.813 90.6983 545.715 90.5708 545.594 90.4669C545.473 90.363 545.332 90.2848 545.18 90.2372C545.027 90.1896 544.867 90.1735 544.708 90.1901C544.3 90.2103 543.901 90.3224 543.542 90.5181C543.183 90.7138 542.873 90.9879 542.635 91.3201L541.463 90.21C541.835 89.6876 542.328 89.2622 542.9 88.9698C543.472 88.6774 544.106 88.5266 544.748 88.5301C545.133 88.4871 545.523 88.524 545.893 88.6383C546.263 88.7527 546.605 88.942 546.899 89.1945C547.192 89.447 547.43 89.7572 547.598 90.1057C547.765 90.4543 547.859 90.8336 547.873 91.2201C547.873 92.3601 547.393 93.2201 545.87 94.3201L544.328 95.52H547.923V97.1601H541.503L541.563 95.74Z" fill="#E11686"/>
<path d="M275.279 58.26V103.99" stroke="#5A5A59" stroke-width="2" stroke-miterlimit="10"/>
<path d="M552.773 95.72V93.749H549.202V92.8225L552.958 87.488H553.784V92.8225H554.896V93.749H553.784V95.72H552.773ZM552.773 92.8225V89.1108L550.196 92.8225H552.773Z" fill="#E11686"/>
<path d="M552.773 95.72H552.523V95.97H552.773V95.72ZM552.773 93.749H553.023V93.499H552.773V93.749ZM549.202 93.749H548.952V93.999H549.202V93.749ZM549.202 92.8225L548.997 92.6786L548.952 92.7433V92.8225H549.202ZM552.958 87.488V87.238H552.829L552.754 87.3441L552.958 87.488ZM553.784 87.488H554.034V87.238H553.784V87.488ZM553.784 92.8225H553.534V93.0725H553.784V92.8225ZM554.896 92.8225H555.146V92.5725H554.896V92.8225ZM554.896 93.749V93.999H555.146V93.749H554.896ZM553.784 93.749V93.499H553.534V93.749H553.784ZM553.784 95.72V95.97H554.034V95.72H553.784ZM552.773 92.8225V93.0725H553.023V92.8225H552.773ZM552.773 89.1108H553.023V88.3125L552.568 88.9682L552.773 89.1108ZM550.196 92.8225L549.99 92.6799L549.718 93.0725H550.196V92.8225ZM553.023 95.72V93.749H552.523V95.72H553.023ZM552.773 93.499H549.202V93.999H552.773V93.499ZM549.452 93.749V92.8225H548.952V93.749H549.452ZM549.406 92.9665L553.163 87.632L552.754 87.3441L548.997 92.6786L549.406 92.9665ZM552.958 87.738H553.784V87.238H552.958V87.738ZM553.534 87.488V92.8225H554.034V87.488H553.534ZM553.784 93.0725H554.896V92.5725H553.784V93.0725ZM554.646 92.8225V93.749H555.146V92.8225H554.646ZM554.896 93.499H553.784V93.999H554.896V93.499ZM553.534 93.749V95.72H554.034V93.749H553.534ZM553.784 95.47H552.773V95.97H553.784V95.47ZM553.023 92.8225V89.1108H552.523V92.8225H553.023ZM552.568 88.9682L549.99 92.6799L550.401 92.9651L552.978 89.2534L552.568 88.9682ZM550.196 93.0725H552.773V92.5725H550.196V93.0725Z" fill="#E01786"/>
</g>
<defs>
<clipPath id="clip0_162_605">
<rect width="613" height="166.67" fill="white"/>
</clipPath>
</defs>
</svg>
